<svg xmlns="http://www.w3.org/2000/svg" version="1.1" xmlns:xlink="http://www.w3.org/1999/xlink" xmlns:svgjs="http://svgjs.dev/svgjs" viewBox="0 0 6.280717315130929 6.916395344006731"><g transform="matrix(1,0,0,1,0.5491137845185894,5.287281559488141)"><g><path d=" M 0.9975 0.7979999999999997 Q 0.9975 0.8939999999999997 0.94575 0.9539999999999997 Q 0.894 1.0139999999999998 0.807 1.0424999999999998 Q 0.72 1.0709999999999997 0.615 1.0709999999999997 L 0.0915 1.0709999999999997 L 0.0915 0.005999999999999783 L 0.7095 0.005999999999999783 Q 0.7845 0.005999999999999783 0.83925 0.045749999999999735 Q 0.894 0.08549999999999969 0.92325 0.14849999999999974 Q 0.9525 0.2114999999999997 0.9525 0.2789999999999997 Q 0.9525 0.3524999999999997 0.91425 0.42149999999999976 Q 0.876 0.4904999999999997 0.7995 0.5249999999999997 Q 0.891 0.5519999999999997 0.94425 0.6194999999999997 Q 0.9975 0.6869999999999997 0.9975 0.7979999999999997 M 0.7005 0.7379999999999998 Q 0.7005 0.7109999999999997 0.69075 0.6907499999999998 Q 0.681 0.6704999999999997 0.6645 0.6584999999999996 Q 0.648 0.6464999999999997 0.6255000000000001 0.6464999999999997 L 0.384 0.6464999999999997 L 0.384 0.8249999999999997 L 0.615 0.8249999999999997 Q 0.639 0.8249999999999997 0.6585 0.8144999999999998 Q 0.678 0.8039999999999997 0.68925 0.7844999999999998 Q 0.7005 0.7649999999999997 0.7005 0.7379999999999998 M 0.384 0.25499999999999967 L 0.384 0.41849999999999976 L 0.5835 0.41849999999999976 Q 0.603 0.41849999999999976 0.621 0.4117499999999997 Q 0.639 0.4049999999999997 0.651 0.3869999999999997 Q 0.663 0.36899999999999966 0.663 0.33599999999999974 Q 0.663 0.3059999999999997 0.65325 0.28874999999999973 Q 0.6435 0.27149999999999974 0.62775 0.26324999999999976 Q 0.612 0.25499999999999967 0.5925 0.25499999999999967 L 0.384 0.25499999999999967 M 1.611003662109375 1.0799999999999996 Q 1.489503662109375 1.0799999999999996 1.390503662109375 1.0342499999999997 Q 1.291503662109375 0.9884999999999997 1.220253662109375 0.9112499999999997 Q 1.1490036621093749 0.8339999999999997 1.110753662109375 0.7372499999999997 Q 1.0725036621093749 0.6404999999999997 1.0725036621093749 0.5369999999999997 Q 1.0725036621093749 0.43049999999999977 1.1130036621093748 0.3344999999999997 Q 1.153503662109375 0.2384999999999997 1.226253662109375 0.16274999999999973 Q 1.299003662109375 0.08699999999999974 1.398753662109375 0.04349999999999965 Q 1.498503662109375 -2.220446049250313e-16 1.6170036621093749 -2.220446049250313e-16 Q 1.738503662109375 -2.220446049250313e-16 1.837503662109375 0.045749999999999735 Q 1.936503662109375 0.09149999999999969 2.007003662109375 0.16949999999999976 Q 2.077503662109375 0.24749999999999972 2.115753662109375 0.3442499999999997 Q 2.1540036621093748 0.4409999999999997 2.1540036621093748 0.5429999999999997 Q 2.1540036621093748 0.6479999999999997 2.114253662109375 0.7439999999999998 Q 2.074503662109375 0.8399999999999997 2.001753662109375 0.9157499999999997 Q 1.9290036621093751 0.9914999999999997 1.830003662109375 1.0357499999999997 Q 1.731003662109375 1.0799999999999996 1.611003662109375 1.0799999999999996 M 1.369503662109375 0.5399999999999997 Q 1.369503662109375 0.5939999999999996 1.384503662109375 0.6442499999999998 Q 1.399503662109375 0.6944999999999997 1.4295036621093749 0.7342499999999997 Q 1.4595036621093749 0.7739999999999998 1.505253662109375 0.7972499999999998 Q 1.551003662109375 0.8204999999999998 1.614003662109375 0.8204999999999998 Q 1.677003662109375 0.8204999999999998 1.723503662109375 0.7964999999999998 Q 1.7700036621093749 0.7724999999999997 1.799253662109375 0.7312499999999997 Q 1.8285036621093749 0.6899999999999997 1.842753662109375 0.6397499999999997 Q 1.857003662109375 0.5894999999999997 1.857003662109375 0.5369999999999997 Q 1.857003662109375 0.48299999999999976 1.842003662109375 0.43349999999999966 Q 1.8270036621093748 0.3839999999999997 1.797003662109375 0.3442499999999997 Q 1.767003662109375 0.30449999999999966 1.720503662109375 0.2819999999999997 Q 1.674003662109375 0.25949999999999973 1.6125036621093751 0.25949999999999973 Q 1.549503662109375 0.25949999999999973 1.503753662109375 0.28349999999999975 Q 1.458003662109375 0.30749999999999966 1.428003662109375 0.3472499999999997 Q 1.398003662109375 0.3869999999999997 1.383753662109375 0.4372499999999997 Q 1.369503662109375 0.4874999999999997 1.369503662109375 0.5399999999999997 M 2.283025634765625 1.0709999999999997 L 2.283025634765625 0.005999999999999783 L 2.772025634765625 0.005999999999999783 Q 2.850025634765625 0.005999999999999783 2.916025634765625 0.037499999999999645 Q 2.982025634765625 0.06899999999999973 3.030025634765625 0.12224999999999975 Q 3.078025634765625 0.17549999999999966 3.104275634765625 0.24149999999999971 Q 3.130525634765625 0.30749999999999966 3.130525634765625 0.37499999999999967 Q 3.130525634765625 0.43649999999999967 3.1125256347656247 0.4934999999999997 Q 3.094525634765625 0.5504999999999998 3.060025634765625 0.5977499999999998 Q 3.025525634765625 0.6449999999999998 2.977525634765625 0.6794999999999998 L 3.202525634765625 1.0709999999999997 L 2.881525634765625 1.0709999999999997 L 2.694025634765625 0.7439999999999998 L 2.575525634765625 0.7439999999999998 L 2.575525634765625 1.0709999999999997 L 2.283025634765625 1.0709999999999997 M 2.575525634765625 0.48899999999999977 L 2.7600256347656247 0.48899999999999977 Q 2.778025634765625 0.48899999999999977 2.794525634765625 0.4754999999999997 Q 2.811025634765625 0.46199999999999974 2.822275634765625 0.43649999999999967 Q 2.833525634765625 0.4109999999999997 2.833525634765625 0.37499999999999967 Q 2.833525634765625 0.3374999999999997 2.8207756347656248 0.31274999999999975 Q 2.8080256347656247 0.2879999999999997 2.789275634765625 0.27449999999999974 Q 2.770525634765625 0.2609999999999997 2.752525634765625 0.2609999999999997 L 2.575525634765625 0.2609999999999997 L 2.575525634765625 0.48899999999999977 M 4.05900732421875 0.8159999999999997 L 4.05900732421875 1.0709999999999997 L 3.3000073242187495 1.0709999999999997 L 3.3000073242187495 0.005999999999999783 L 4.045507324218749 0.005999999999999783 L 4.045507324218749 0.2609999999999997 L 3.5925073242187495 0.2609999999999997 L 3.5925073242187495 0.4109999999999997 L 3.9795073242187495 0.4109999999999997 L 3.9795073242187495 0.6479999999999997 L 3.5925073242187495 0.6479999999999997 L 3.5925073242187495 0.8159999999999997 L 4.05900732421875 0.8159999999999997 M 4.199984619140625 1.0709999999999997 L 4.199984619140625 0.005999999999999783 L 4.609484619140625 0.005999999999999783 Q 4.786484619140625 0.005999999999999783 4.905734619140625 0.07724999999999971 Q 5.024984619140625 0.14849999999999974 5.0857346191406245 0.26924999999999977 Q 5.146484619140625 0.3899999999999997 5.146484619140625 0.5369999999999997 Q 5.146484619140625 0.6989999999999997 5.079734619140625 0.8189999999999997 Q 5.012984619140624 0.9389999999999997 4.892234619140625 1.0049999999999997 Q 4.771484619140625 1.0709999999999997 4.609484619140625 1.0709999999999997 L 4.199984619140625 1.0709999999999997 M 4.8494846191406245 0.5369999999999997 Q 4.8494846191406245 0.4544999999999997 4.820984619140625 0.39224999999999977 Q 4.792484619140625 0.32999999999999974 4.738484619140625 0.29549999999999976 Q 4.684484619140624 0.2609999999999997 4.609484619140625 0.2609999999999997 L 4.492484619140625 0.2609999999999997 L 4.492484619140625 0.8159999999999997 L 4.609484619140625 0.8159999999999997 Q 4.6859846191406245 0.8159999999999997 4.739234619140625 0.7799999999999998 Q 4.792484619140625 0.7439999999999998 4.820984619140625 0.6802499999999998 Q 4.8494846191406245 0.6164999999999997 4.8494846191406245 0.5369999999999997" fill="#574848" fill-rule="nonzero"></path></g><g></g><g clip-path="url(#SvgjsClipPath1001)"><g clip-path="url(#SvgjsClipPath10007fdf3988-2f8d-4771-880a-262b7e29c995)"><path d=" M 2.709351008045199 -0.6418170467548419 C 3.8089521129127393 -0.6418170467548419 4.700347114699442 -1.5394506017487526 4.700347114699442 -2.6470182044168635 C 4.700347114699442 -3.754585807084975 3.8089521129127393 -4.652241802917761 2.709351008045199 -4.652241802917761 C 1.6097499031776585 -4.652241802917761 0.7183549013909556 -3.754473602890601 0.7183549013909556 -2.6470182044168635 C 0.7183549013909556 -1.5395628059431266 1.6097723440165332 -0.6418170467548419 2.709351008045199 -0.6418170467548419 Z M 2.709351008045199 -0.573843745802928 C 3.8462263462838617 -0.573843745802928 4.76782671719611 -1.502041723344381 4.76782671719611 -2.6470182044168635 C 4.76782671719611 -3.791994685489346 3.8462263462838617 -4.720215103869674 2.709351008045199 -4.720215103869674 C 1.5724756698065363 -4.720215103869674 0.6508752988942883 -3.792017126328221 0.6508752988942883 -2.6470182044168635 C 0.6508752988942883 -1.5020192825055063 1.5724307881287867 -0.573843745802928 2.709351008045199 -0.573843745802928 Z" fill="#574848" transform="matrix(1,0,0,1,0,0)" fill-rule="evenodd"></path></g><g clip-path="url(#SvgjsClipPath10007fdf3988-2f8d-4771-880a-262b7e29c995)"><path d=" M 2.4056366947130092 -0.573843745802928 C 3.505237799580549 -0.573843745802928 4.396632801367252 -1.4714773007968387 4.396632801367252 -2.5790449034649496 C 4.396632801367252 -3.686612506133061 3.50523779958055 -4.5842685019658465 2.4056366947130092 -4.5842685019658465 C 1.3060355898454685 -4.5842685019658465 0.41466302889764073 -3.686500301938687 0.41466302889764073 -2.5790449034649496 C 0.41466302889764073 -1.4715895049912127 1.3060580306843435 -0.573843745802928 2.4056366947130092 -0.573843745802928 Z M 2.4056366947130092 -0.5058704448510145 C 3.5425120329516715 -0.5058704448510145 4.464134844702794 -1.4340684223924671 4.464134844702794 -2.5790449034649496 C 4.464134844702794 -3.7240213845374326 3.5425120329516715 -4.652241802917761 2.4056366947130092 -4.652241802917761 C 1.268761356474347 -4.652241802917761 0.34716098556209873 -3.7240438253763073 0.34716098556209873 -2.5790449034649496 C 0.34716098556209873 -1.434045981553592 1.2687837973132217 -0.5058255631732642 2.4056366947130092 -0.5058255631732642 Z" fill="#574848" transform="matrix(1,0,0,1,0,0)" fill-rule="evenodd"></path></g><g clip-path="url(#SvgjsClipPath10007fdf3988-2f8d-4771-880a-262b7e29c995)"><path d=" M 2.7768530513807415 -0.335925972051792 C 3.8764541562482817 -0.335925972051792 4.76782671719611 -1.2336941720789514 4.76782671719611 -2.3411495705526884 C 4.76782671719611 -3.4486049690264253 3.876431715409407 -4.346350728214711 2.7768530513807415 -4.346350728214711 C 1.677274387352075 -4.346350728214711 0.7858569447264977 -3.448582528187551 0.7858569447264977 -2.3411495705526884 C 0.7858569447264977 -1.2337166129178265 1.6772519465132005 -0.335925972051792 2.7768530513807415 -0.335925972051792 Z M 2.7768530513807415 -0.2679526710998781 C 3.913705948780528 -0.2679526710998781 4.835328760531651 -1.1961506486413311 4.835328760531651 -2.3411495705526884 C 4.835328760531651 -3.4861484924640465 3.913705948780529 -4.4143464700054995 2.7768530513807415 -4.4143464700054995 C 1.640000153980953 -4.4143464700054995 0.7183549013909555 -3.4861260516251713 0.7183549013909555 -2.3411495705526884 C 0.7183549013909555 -1.1961730894802063 1.6399777131420783 -0.2679526710998781 2.7768530513807415 -0.2679526710998781 Z" fill="#574848" transform="matrix(1,0,0,1,0,0)" fill-rule="evenodd"></path></g><path d=" M 1.7338215168273954 -1.7771005637495219 L 1.9629605171963942 -1.7771005637495219 L 1.9629605171963942 -3.206632262825792 L 1.7338215168273954 -3.206632262825792 L 1.7338215168273954 -3.6161258312271647 L 2.826297137941525 -3.613169198964339 C 2.927808178965211 -3.613169198964339 3.0206957092223212 -3.595183019365482 3.1049597287128563 -3.559210660167768 C 3.1892237482033914 -3.5232383009700543 3.2619076246645253 -3.4744538686334288 3.3230113580962586 -3.4128573631578916 C 3.384115091527992 -3.351260857682354 3.4316675937551064 -3.2793161392869266 3.4656688647776033 -3.1970232079716085 C 3.4996701358000992 -3.1147302766562905 3.5166707713113476 -3.0272632388810274 3.5166707713113476 -2.9346220946458197 C 3.5166707713113476 -2.8262122450088736 3.497699047624882 -2.7365277330364917 3.4597556002519516 -2.6655685587286726 C 3.4218121528790206 -2.5946093844208535 3.36785361408245 -2.537447827339555 3.297879983862239 -2.4940838874847766 C 3.371795790432884 -2.4467777712795638 3.4301892776236937 -2.3883842840887546 3.4730604454346676 -2.3189034259123487 C 3.5159316132456415 -2.2494225677359423 3.5373671971511285 -2.164912162223505 3.5373671971511285 -2.0653722093750364 C 3.5373671971511285 -1.9638611683513512 3.5198737895960757 -1.8707272520723386 3.4848869744859705 -1.7859704605379993 C 3.449900159375866 -1.70121366900366 3.4021012711268486 -1.6280370204987213 3.3414903097389197 -1.5664405150231842 C 3.2808793483509913 -1.504844009547647 3.2091810159774656 -1.4570451212986297 3.1263953126183432 -1.4230438502761333 C 3.043609609259221 -1.389042579253637 2.9544178693306433 -1.3720419437423885 2.8588200928326093 -1.3720419437423885 L 1.7338215168273954 -1.3720419437423885 L 1.7338215168273954 -1.7771005637495219 M 2.4537614728254757 -2.298946158138274 L 2.4537614728254757 -1.7771005637495219 L 2.826297137941525 -1.7771005637495219 C 2.8548779164821747 -1.7771005637495219 2.881733992869509 -1.7844921444065864 2.9068653671035283 -1.7992753057207154 C 2.9319967413375476 -1.814058467034844 2.9536787112649368 -1.833522962765114 2.9719112768856957 -1.8576687929115248 C 2.9901438425064546 -1.8818146230579353 3.0046806177986816 -1.9099026295547803 3.015521602762376 -1.9419328124020598 C 3.0263625877260707 -1.9739629952493392 3.031783080207918 -2.0072251082061294 3.031783080207918 -2.0417191512724306 C 3.031783080207918 -2.0781842825139485 3.0263625877260707 -2.111939167514543 3.015521602762376 -2.1429838062742137 C 3.0046806177986816 -2.1740284450338843 2.9898974564845524 -2.201130907443121 2.971172118819989 -2.224291193501923 C 2.952446781155426 -2.247451479560725 2.9305184252061345 -2.265684045181484 2.9053870509721156 -2.2789888903642 C 2.8802556767380962 -2.292293735546916 2.853892372394566 -2.298946158138274 2.826297137941525 -2.298946158138274 L 2.4537614728254757 -2.298946158138274 M 2.4537614728254757 -3.206632262825792 L 2.4537614728254757 -2.7040047781454075 L 2.8056007121017448 -2.7040047781454075 C 2.8331959465547856 -2.7040047781454075 2.8593128648764132 -2.710903586758668 2.883951467066628 -2.7247012039851883 C 2.908590069256843 -2.7384988212117087 2.93002565316233 -2.75697777285437 2.9482582187830895 -2.780138058913172 C 2.9664907844038484 -2.803298344971974 2.9810275596960754 -2.8294152632936016 2.99186854465977 -2.858488813878055 C 3.0027095296234645 -2.887562364462509 3.0081300221053118 -2.9178678451564735 3.0081300221053118 -2.9494052559599484 C 3.0081300221053118 -2.979957122675815 3.0027095296234645 -3.0105089893916817 2.99186854465977 -3.0410608561075483 C 2.9810275596960754 -3.0716127228234145 2.9664907844038484 -3.0992079572764553 2.9482582187830895 -3.1238465594666702 C 2.93002565316233 -3.148485161656885 2.908590069256843 -3.1684424294309594 2.883951467066628 -3.1837183627888925 C 2.8593128648764132 -3.198994296146826 2.8331959465547856 -3.206632262825792 2.8056007121017448 -3.206632262825792 L 2.4537614728254757 -3.206632262825792" fill="#574848" transform="matrix(1,0,0,1,0,0)" fill-rule="nonzero"></path></g></g><defs><clipPath id="SvgjsClipPath1001"><path d=" M 0.34716098556209873 -4.738167774969552 h 4.488167774969552 v 4.488167774969552 h -4.488167774969552 Z"></path></clipPath><clipPath id="SvgjsClipPath10007fdf3988-2f8d-4771-880a-262b7e29c995"><path d=" M 0.34716098556209873 -4.720215103869674 L 4.835328760531651 -4.720215103869674 L 4.835328760531651 -0.2679526710998781 L 0.34716098556209873 -0.2679526710998781 Z"></path></clipPath></defs></svg>